<svg width="56" height="100" viewBox="0 0 56 100" fill="none" xmlns="http://www.w3.org/2000/svg">
<path d="M12.9486 10.9918H42.7824L53.1041 1.18995C52.1487 0.451498 50.9534 0.00890456 49.654 0.00890456H5.81579C4.52429 0.00890456 3.33852 0.445189 2.38627 1.17338L12.9486 10.9918" fill="#262A34"/>
<path d="M1.43006 2.0941C0.636383 3.06844 0.159065 4.31103 0.159065 5.66485V44.0231C0.159065 46.2219 1.41584 48.1232 3.24855 49.0589L11.8922 42.5809V11.8194L1.43006 2.0941" fill="#262A34"/>
<path d="M43.3693 12.1889V42.7051L52.0129 49.1831C53.8456 48.2475 55.1024 46.3461 55.1024 44.1473V5.78905C55.1024 4.44312 54.6306 3.21001 53.8472 2.23961L43.3693 12.1889" fill="#262A34"/>
<path d="M12.9486 89.0164H42.7824L53.1041 98.819C52.1487 99.5558 50.9534 100 49.654 100H5.81579C4.52429 100 3.33852 99.5621 2.38627 98.8339L12.9486 89.0164Z" fill="#DDDDDD"/>
<path d="M1.43006 97.9133C0.636383 96.9397 0.159065 95.6979 0.159065 94.3433V55.9851C0.159065 53.7863 1.41584 51.8857 3.24855 50.9492L11.8922 57.4272V88.1888L1.43006 97.9133Z" fill="#DDDDDD"/>
<path d="M43.5768 87.9434V57.4272L52.2205 50.9492C54.0532 51.8857 55.3099 53.7862 55.3099 55.985V94.3433C55.3099 95.6884 54.8382 96.9216 54.0547 97.8935L43.5768 87.9434Z" fill="#262A34"/>
<path d="M42.7066 44.0026H12.7624L4.78776 49.881L12.7624 55.7602H24.1791H31.2898H42.7066L50.6812 49.881L42.7066 44.0026Z" fill="#262A34"/>
</svg>
