<svg width="56" height="100" viewBox="0 0 56 100" fill="none" xmlns="http://www.w3.org/2000/svg">
<path d="M12.7907 10.9838H42.6271L52.9497 1.18116C51.9942 0.442643 50.7989 9.94797e-06 49.4994 9.94797e-06H5.65724C4.36563 9.94797e-06 3.17975 0.436334 2.22742 1.16459L12.7907 10.9838Z" fill="#CC3300"/>
<path d="M1.2711 2.08538C0.47736 3.05981 0 4.3025 0 5.65644V44.0181C0 46.2171 1.25689 48.1186 3.08976 49.0544L11.7342 42.5758V11.8115L1.2711 2.08538" fill="#CC3300"/>
<path d="M43.4216 12.0569V42.5758L52.066 49.0544C53.8989 48.1186 55.1557 46.2171 55.1557 44.0181V5.65644C55.1557 4.31039 54.6839 3.07717 53.9005 2.10669L43.4216 12.0569" fill="#DDDDDD"/>
<path d="M12.7907 89.0154H42.6271L52.9497 98.8188C51.9942 99.5558 50.7989 100 49.4994 100H5.65724C4.36563 100 3.17975 99.5621 2.22742 98.8338L12.7907 89.0154Z" fill="#CC3300"/>
<path d="M1.2711 97.9131C0.47736 96.9394 0 95.6975 0 94.3428V55.9811C0 53.7821 1.25689 51.8814 3.08976 50.9448L11.7342 57.4234V88.1877L1.2711 97.9131" fill="#CC3300"/>
<path d="M43.4216 87.9423V57.4234L52.066 50.9448C53.8989 51.8814 55.1557 53.7821 55.1557 55.9811V94.3428C55.1557 95.688 54.6839 96.9212 53.9005 97.8933L43.4216 87.9423Z" fill="#CC3300"/>
<path d="M42.5513 43.9976H12.6044L4.62909 49.8765L12.6044 55.7562H24.0222H31.1335H42.5513L50.5266 49.8765L42.5513 43.9976Z" fill="#CC3300"/>
</svg>
